<svg xmlns="http://www.w3.org/2000/svg" xmlns:xlink="http://www.w3.org/1999/xlink" viewBox="0 0 64 64"><defs><linearGradient id="c" x1="32" x2="32" y1="10" y2="29" gradientUnits="userSpaceOnUse"><stop offset="0" stop-color="#ffc033"/><stop offset="1" stop-color="#ef8e2e"/></linearGradient><linearGradient id="d" x1="32" x2="32" y1="27" y2="48" gradientUnits="userSpaceOnUse"><stop offset="0" stop-color="#d6d6d6"/><stop offset="1" stop-color="#a1a1a1"/></linearGradient><linearGradient id="a" x1="32" x2="32" y1="46" y2="52" gradientUnits="userSpaceOnUse"><stop offset="0" stop-color="#20abe0"/><stop offset="1" stop-color="#01568d"/></linearGradient><linearGradient id="e" y1="36.22" y2="44" xlink:href="#a"/><linearGradient id="b" x1="32" x2="32" y1="36.22" y2="44" gradientUnits="userSpaceOnUse"><stop offset="0" stop-color="#000406"/><stop offset="1" stop-color="#001521"/></linearGradient><linearGradient id="f" x1="29.63" x2="29.63" y1="31.56" y2="35.89" xlink:href="#b"/><linearGradient id="g" x1="26" x2="26" y1="34.75" y2="38.42" xlink:href="#b"/><linearGradient id="h" x1="34.37" x2="34.37" y1="31.56" y2="35.89" xlink:href="#b"/><linearGradient id="i" x1="38" x2="38" y1="34.75" y2="38.42" xlink:href="#b"/><linearGradient id="j" x1="19" x2="19" y1="23" y2="25" xlink:href="#b"/><linearGradient id="k" x1="23" x2="23" y1="18" y2="20" xlink:href="#b"/><linearGradient id="l" x1="37" x2="37" y1="22" y2="24" xlink:href="#b"/><linearGradient id="m" x1="31" x2="31" y1="17" y2="19" xlink:href="#b"/><linearGradient id="n" x1="45" x2="45" y1="23" y2="25" xlink:href="#b"/><linearGradient id="o" x1="29" x2="29" y1="22" y2="24" xlink:href="#b"/><linearGradient id="p" x1="39" x2="39" y1="17" y2="19" xlink:href="#b"/><linearGradient id="q" y1="10.01" y2="52" xlink:href="#b"/></defs><g data-name="Layer 2"><path fill="url(#c)" d="M48.66,20.33a5,5,0,0,0-4.82-5A5.44,5.44,0,0,0,35,13.24a6.43,6.43,0,0,0-4.21-.35A5.87,5.87,0,0,0,25.74,10a6,6,0,0,0-5.81,4.77,5.5,5.5,0,0,0-3.63,4.34,5.92,5.92,0,0,0-3.18,9.53,1,1,0,0,0,.77.36h0L51,28.28a1,1,0,0,0,.93-.69,5.91,5.91,0,0,0-3.29-7.26Z"/><path fill="url(#d)" d="M56,31.07A5,5,0,0,0,51.1,27H12.9A5,5,0,0,0,8,31.07L5,46.81A1,1,0,0,0,6,48H58a1,1,0,0,0,1-1.19Z"/><rect width="58" height="6" x="3" y="46" fill="url(#a)" rx="1"/><path fill="url(#e)" d="M32,36.22a5.08,5.08,0,0,0-5,4.85C27,42.85,28.28,44,30.32,44A6.19,6.19,0,0,0,32,43.52a6.55,6.55,0,0,0,1.68.48c2,0,3.36-1.15,3.36-2.93A5.08,5.08,0,0,0,32,36.22Z"/></g><g data-name="Layer 3"><path fill="url(#b)" d="M32,36.22a5.08,5.08,0,0,0-5,4.85C27,42.85,28.28,44,30.32,44A6.19,6.19,0,0,0,32,43.52a6.55,6.55,0,0,0,1.68.48c2,0,3.36-1.15,3.36-2.93A5.08,5.08,0,0,0,32,36.22ZM33.69,42A7,7,0,0,0,32,41.52a6.36,6.36,0,0,0-1.68.48C29,42,29,41.33,29,41.07a3,3,0,0,1,6.08,0C35,41.33,35,42,33.69,42Z"/><path fill="url(#f)" d="M29.41,35.86c2.94.46,1.41-4.18.68-4.3S26.47,35.4,29.41,35.86Z"/><path fill="url(#g)" d="M25.68,34.75c-.62.08-2,4,.47,3.65S26.31,34.67,25.68,34.75Z"/><path fill="url(#h)" d="M34.59,35.86c2.94-.46.06-4.41-.68-4.3S31.65,36.32,34.59,35.86Z"/><path fill="url(#i)" d="M38.32,34.75c-.63-.08-3,3.33-.47,3.65S38.94,34.83,38.32,34.75Z"/><circle cx="19" cy="24" r="1" fill="url(#j)"/><circle cx="23" cy="19" r="1" fill="url(#k)"/><circle cx="37" cy="23" r="1" fill="url(#l)"/><circle cx="31" cy="18" r="1" fill="url(#m)"/><circle cx="45" cy="24" r="1" fill="url(#n)"/><circle cx="29" cy="23" r="1" fill="url(#o)"/><circle cx="39" cy="18" r="1" fill="url(#p)"/><path fill="url(#q)" d="M60,46H58.83L56,31.07a5,5,0,0,0-3.94-4,5.88,5.88,0,0,0-3.41-6.77,5,5,0,0,0-4.82-5A5.44,5.44,0,0,0,35,13.24a6.43,6.43,0,0,0-4.21-.35,5.93,5.93,0,0,0-10.89,1.88,5.5,5.5,0,0,0-3.63,4.34,5.88,5.88,0,0,0-4.1,8,5,5,0,0,0-4.21,4L5.17,46H4a1,1,0,0,0-1,1v4a1,1,0,0,0,1,1H60a1,1,0,0,0,1-1V47A1,1,0,0,0,60,46ZM17.33,21a1,1,0,0,0,.91-1v-.06A3.47,3.47,0,0,1,21,16.54a1,1,0,0,0,.8-.91,3.92,3.92,0,0,1,7.55-1.14,1,1,0,0,0,1.33.55,4.41,4.41,0,0,1,4,.29A1,1,0,0,0,36,15.1a3.45,3.45,0,0,1,6.1,1.51,1,1,0,0,0,1.11.8,3,3,0,0,1,3.38,3.45A1,1,0,0,0,47.34,22a3.92,3.92,0,0,1,2.71,5l.08,0H14.41A3.9,3.9,0,0,1,17.33,21ZM10,31.44a3,3,0,0,1,3-2.44H51.1a3,3,0,0,1,2.95,2.44L56.79,46H7.21ZM59,50H5V48H59Z"/></g></svg>